<svg xmlns="http://www.w3.org/2000/svg" width="179.836" height="134" viewBox="0 0 179.836 134">
  <g id="Invite-rafiki" transform="translate(0)">
    <g id="freepik--background-complete--inject-20" transform="translate(0 0)">
      <rect id="Rectangle_78" data-name="Rectangle 78" width="179.836" height="0.09" transform="translate(0 117.757)" fill="#ebebeb"/>
      <rect id="Rectangle_79" data-name="Rectangle 79" width="18.307" height="0.09" transform="translate(141.841 121.875)" fill="#ebebeb"/>
      <rect id="Rectangle_80" data-name="Rectangle 80" width="16.98" height="0.09" transform="translate(18.868 120.811)" fill="#ebebeb"/>
      <rect id="Rectangle_81" data-name="Rectangle 81" width="6.902" height="0.09" transform="translate(136.248 120.206)" fill="#ebebeb"/>
      <rect id="Rectangle_82" data-name="Rectangle 82" width="5.064" height="0.09" transform="translate(114.067 122.591)" fill="#ebebeb"/>
      <rect id="Rectangle_83" data-name="Rectangle 83" width="12.747" height="0.09" transform="translate(98.115 122.591)" fill="#ebebeb"/>
      <rect id="Rectangle_84" data-name="Rectangle 84" width="20.498" height="0.09" transform="translate(70.215 121.073)" fill="#ebebeb"/>
      <path id="Path_20035" data-name="Path 20035" d="M109.709,156.716H40.26a2.054,2.054,0,0,1-2.05-2.054V57.036A2.054,2.054,0,0,1,40.26,55h69.449a2.054,2.054,0,0,1,2.054,2.054v97.608A2.054,2.054,0,0,1,109.709,156.716ZM40.26,55.072a1.964,1.964,0,0,0-1.96,1.964v97.626a1.964,1.964,0,0,0,1.96,1.964h69.449a1.967,1.967,0,0,0,1.964-1.964V57.036a1.967,1.967,0,0,0-1.964-1.964Z" transform="translate(-24.467 -55)" fill="#ebebeb"/>
      <path id="Path_20036" data-name="Path 20036" d="M326.007,156.716H256.554a2.057,2.057,0,0,1-2.054-2.054V57.036A2.057,2.057,0,0,1,256.554,55h69.453a2.054,2.054,0,0,1,2.047,2.036v97.626A2.054,2.054,0,0,1,326.007,156.716ZM256.554,55.072a1.967,1.967,0,0,0-1.964,1.964v97.626a1.967,1.967,0,0,0,1.964,1.964h69.453a1.967,1.967,0,0,0,1.964-1.964V57.036a1.967,1.967,0,0,0-1.964-1.964Z" transform="translate(-162.963 -55)" fill="#ebebeb"/>
      <rect id="Rectangle_85" data-name="Rectangle 85" width="48.808" height="73.05" transform="translate(74.754 83.998) rotate(180)" fill="#e6e6e6"/>
      <rect id="Rectangle_86" data-name="Rectangle 86" width="48.808" height="73.05" transform="translate(73.672 83.998) rotate(180)" fill="#f5f5f5"/>
      <rect id="Rectangle_87" data-name="Rectangle 87" width="68.676" height="44.912" transform="translate(71.722 13.135) rotate(90)" fill="#fff"/>
      <rect id="Rectangle_88" data-name="Rectangle 88" width="68.676" height="0.82" transform="translate(27.63 13.135) rotate(90)" fill="#e6e6e6"/>
      <rect id="Rectangle_89" data-name="Rectangle 89" width="47.196" height="2.935" transform="translate(72.866 37.482) rotate(180)" fill="#f5f5f5"/>
      <path id="Path_20037" data-name="Path 20037" d="M62.689,75.37h54.138a.3.3,0,0,1,.3.3h0a.3.3,0,0,1-.3.3H62.689a.3.3,0,0,1-.3-.3h0a.3.3,0,0,1,.3-.3Z" transform="translate(-39.95 -68.043)" fill="#e6e6e6"/>
      <path id="Path_20038" data-name="Path 20038" d="M58.22,73.514a1.5,1.5,0,1,0,.434-1.07A1.5,1.5,0,0,0,58.22,73.514Z" transform="translate(-37.28 -65.886)" fill="#e6e6e6"/>
      <path id="Path_20039" data-name="Path 20039" d="M205.993,77.886h0a.406.406,0,0,0,.406-.4v-.87a.406.406,0,0,0-.406-.4h0a.4.4,0,0,0-.4.4v.87A.4.4,0,0,0,205.993,77.886Z" transform="translate(-131.645 -68.581)" fill="#e6e6e6"/>
      <path id="Path_20040" data-name="Path 20040" d="M75.073,77.886h0a.406.406,0,0,0,.406-.4v-.87a.406.406,0,0,0-.406-.4h0a.4.4,0,0,0-.4.4v.87A.4.4,0,0,0,75.073,77.886Z" transform="translate(-47.813 -68.581)" fill="#e6e6e6"/>
      <rect id="Rectangle_90" data-name="Rectangle 90" width="50.031" height="68.863" transform="translate(72.863 76.488) rotate(180)" fill="#e0e0e0" opacity="0.5"/>
      <path id="Path_20041" data-name="Path 20041" d="M189.15,73.514a1.5,1.5,0,1,0,.432-1.07A1.5,1.5,0,0,0,189.15,73.514Z" transform="translate(-121.118 -65.886)" fill="#e6e6e6"/>
      <rect id="Rectangle_91" data-name="Rectangle 91" width="9.632" height="21.361" transform="translate(76.761 116.358) rotate(180)" fill="#f0f0f0"/>
      <rect id="Rectangle_92" data-name="Rectangle 92" width="47.509" height="1.352" transform="translate(74.909 117.71) rotate(180)" fill="#f0f0f0"/>
      <rect id="Rectangle_93" data-name="Rectangle 93" width="41.575" height="21.361" transform="translate(25.551 94.997)" fill="#f5f5f5"/>
      <rect id="Rectangle_94" data-name="Rectangle 94" width="34" height="7.006" transform="translate(29.339 97.626)" fill="#f0f0f0"/>
      <rect id="Rectangle_95" data-name="Rectangle 95" width="34" height="7.006" transform="translate(29.339 106.722)" fill="#f0f0f0"/>
      <rect id="Rectangle_96" data-name="Rectangle 96" width="9.513" height="0.96" rx="0.48" transform="translate(51.095 101.608) rotate(180)" fill="#f5f5f5"/>
      <rect id="Rectangle_97" data-name="Rectangle 97" width="9.513" height="0.96" rx="0.48" transform="translate(51.095 110.704) rotate(180)" fill="#f5f5f5"/>
      <path id="Path_20042" data-name="Path 20042" d="M106.7,309.13s-.119,3.6-4.557,3.6-4.553-3.6-4.553-3.6Z" transform="translate(-62.49 -217.726)" fill="#f0f0f0"/>
      <path id="Path_20043" data-name="Path 20043" d="M135.57,309.13s-.115,3.6-4.557,3.6-4.553-3.6-4.553-3.6Z" transform="translate(-80.976 -217.726)" fill="#f0f0f0"/>
      <path id="Path_20044" data-name="Path 20044" d="M106.7,302.5s-.119,3.6-4.557,3.6-4.553-3.6-4.553-3.6Z" transform="translate(-62.49 -213.481)" fill="#f0f0f0"/>
      <path id="Path_20045" data-name="Path 20045" d="M135.57,302.5s-.115,3.6-4.557,3.6-4.553-3.6-4.553-3.6Z" transform="translate(-80.976 -213.481)" fill="#f0f0f0"/>
      <path id="Path_20046" data-name="Path 20046" d="M164.441,309.13s-.115,3.6-4.553,3.6-4.557-3.6-4.557-3.6Z" transform="translate(-99.462 -217.726)" fill="#f0f0f0"/>
      <path id="Path_20047" data-name="Path 20047" d="M164.441,302.5s-.115,3.6-4.553,3.6-4.557-3.6-4.557-3.6Z" transform="translate(-99.462 -213.481)" fill="#f0f0f0"/>
      <rect id="Rectangle_98" data-name="Rectangle 98" width="29.087" height="41.931" transform="translate(152.8 53.091) rotate(180)" fill="#e6e6e6"/>
      <rect id="Rectangle_99" data-name="Rectangle 99" width="33.878" height="41.931" transform="translate(149.516 53.091) rotate(180)" fill="#f5f5f5"/>
      <rect id="Rectangle_100" data-name="Rectangle 100" width="36.543" height="25.217" transform="translate(145.186 13.855) rotate(90)" fill="#fff"/>
      <rect id="Rectangle_101" data-name="Rectangle 101" width="37.478" height="0.46" transform="translate(132.809 13.387) rotate(90)" fill="#f5f5f5"/>
      <rect id="Rectangle_102" data-name="Rectangle 102" width="7.269" height="47.66" transform="translate(159.655 115.563) rotate(180)" fill="#f0f0f0"/>
      <rect id="Rectangle_103" data-name="Rectangle 103" width="59.947" height="2.19" transform="translate(157.738 117.75) rotate(180)" fill="#f0f0f0"/>
      <rect id="Rectangle_104" data-name="Rectangle 104" width="56.512" height="47.66" transform="translate(95.874 67.899)" fill="#f5f5f5"/>
      <rect id="Rectangle_105" data-name="Rectangle 105" width="48.657" height="11.337" transform="translate(99.802 85.124)" fill="#f0f0f0"/>
      <rect id="Rectangle_106" data-name="Rectangle 106" width="48.657" height="11.337" transform="translate(99.802 99.967)" fill="#f0f0f0"/>
      <rect id="Rectangle_107" data-name="Rectangle 107" width="29.54" height="1.554" rx="0.777" transform="translate(138.902 85.904) rotate(180)" fill="#f5f5f5"/>
      <rect id="Rectangle_108" data-name="Rectangle 108" width="29.54" height="1.554" rx="0.777" transform="translate(138.902 100.744) rotate(180)" fill="#f5f5f5"/>
      <rect id="Rectangle_109" data-name="Rectangle 109" width="48.657" height="11.337" transform="translate(99.802 70.284)" fill="#f0f0f0"/>
      <rect id="Rectangle_110" data-name="Rectangle 110" width="29.54" height="1.554" rx="0.777" transform="translate(138.902 71.064) rotate(180)" fill="#f5f5f5"/>
      <path id="Path_20048" data-name="Path 20048" d="M294.7,138.2a4.19,4.19,0,0,0,0-8.38h-.511v8.38Z" transform="translate(-188.378 -102.909)" fill="#e0e0e0"/>
      <circle id="Ellipse_21" data-name="Ellipse 21" cx="4.19" cy="4.19" r="4.19" transform="translate(101.622 26.911)" fill="#f5f5f5"/>
      <path id="Path_20049" data-name="Path 20049" d="M278,118.287a8.438,8.438,0,0,1-8.427-8.431v-5.035a.791.791,0,1,1,1.583,0v5.035a6.855,6.855,0,0,0,6.834,6.834.791.791,0,1,1,0,1.583Z" transform="translate(-172.613 -86.395)" fill="#e0e0e0"/>
      <path id="Path_20050" data-name="Path 20050" d="M249.24,94.016h14.229A1.554,1.554,0,0,0,265,92.243l-1.223-8.5a4.1,4.1,0,0,0-4.061-3.514h-6.726a4.1,4.1,0,0,0-4.061,3.514l-1.226,8.485a1.55,1.55,0,0,0,1.532,1.788Z" transform="translate(-158.602 -71.155)" fill="#f5f5f5"/>
    </g>
    <g id="freepik--Shadow--inject-20" transform="translate(20.181 125.857)">
      <ellipse id="freepik--path--inject-20" cx="69.737" cy="4.071" rx="69.737" ry="4.071" fill="#f5f5f5"/>
    </g>
    <g id="freepik--character-2--inject-20" transform="translate(95.645 18.47)">
      <path id="Path_20051" data-name="Path 20051" d="M288.963,387.048l-2.723-.852,1.252-6.535,2.723.856Z" transform="translate(-278.932 -281.358)" fill="#ff8b7b"/>
      <path id="Path_20052" data-name="Path 20052" d="M353.519,396.371h-2.856l-2.223-6.611h2.852Z" transform="translate(-318.76 -287.826)" fill="#ff8b7b"/>
      <path id="Path_20053" data-name="Path 20053" d="M344.166,407.22h3.482a.245.245,0,0,1,.241.194l.565,2.536a.417.417,0,0,1-.417.507c-1.122-.018-1.939-.083-3.349-.083-.867,0-3.482.09-4.676.09s-1.352-1.187-.863-1.291a11.347,11.347,0,0,0,4.561-1.777A.683.683,0,0,1,344.166,407.22Z" transform="translate(-312.645 -299.006)" fill="#263238"/>
      <path id="Path_20054" data-name="Path 20054" d="M273.348,396.569l2.975.932a.252.252,0,0,1,.173.259l-.223,2.59a.414.414,0,0,1-.543.36c-1.079-.36-2.6-.9-3.956-1.324-1.575-.5-3.09-.942-4.938-1.525-1.119-.36-1.079-1.575-.576-1.532,2.277.2,4.158.806,6.355.248A1.3,1.3,0,0,1,273.348,396.569Z" transform="translate(-265.921 -292.031)" fill="#263238"/>
      <path id="Path_20055" data-name="Path 20055" d="M313.221,165.313c-.478.673-1,1.392-1.485,2.1s-.975,1.439-1.457,2.158c-.95,1.439-1.867,2.9-2.68,4.363-.212.36-.385.719-.583,1.1s-.36.719-.518,1.079-.309.719-.446,1.079l-.083.216a.193.193,0,0,1-.025.05v-.342a1.144,1.144,0,0,0-.032-.176.458.458,0,0,0-.04-.137l-.022-.068-.043-.1a1.929,1.929,0,0,0-.108-.209,1.713,1.713,0,0,0-.209-.273,1.8,1.8,0,0,0-.77-.5,1.761,1.761,0,0,0-.432-.086,1.259,1.259,0,0,0-.2,0h-.144a1.681,1.681,0,0,0-.432.108,2.1,2.1,0,0,0-.216.1,1.138,1.138,0,0,0-.119.076l-.072.058-.047.04a.441.441,0,0,0-.076.076c-.025.043.032,0,.079-.058.216-.234.5-.575.748-.906l.791-1.036c.539-.694,1.079-1.4,1.655-2.086l1.892,1.007c-.263.885-.575,1.73-.917,2.579-.18.421-.36.845-.557,1.266a11.542,11.542,0,0,1-.719,1.327,3.6,3.6,0,0,1-.342.457,2.428,2.428,0,0,1-.194.194l-.079.065-.108.079a1.433,1.433,0,0,1-.155.1,2.372,2.372,0,0,1-.252.122,1.907,1.907,0,0,1-.471.115h-.367a1.743,1.743,0,0,1-.45-.09,1.826,1.826,0,0,1-.453-.219,1.757,1.757,0,0,1-.36-.3,1.714,1.714,0,0,1-.219-.291,1.968,1.968,0,0,1-.119-.227l-.047-.111-.025-.076c-.018-.05-.032-.1-.047-.155s-.029-.147-.04-.219v-.266a3.318,3.318,0,0,1,.029-.489,1.4,1.4,0,0,1,.043-.277c.029-.162.058-.295.09-.428a13.082,13.082,0,0,1,.435-1.439c.162-.464.36-.906.529-1.352a13.572,13.572,0,0,1,.593-1.288,50.326,50.326,0,0,1,2.708-4.834c.489-.77.989-1.532,1.514-2.277s1.039-1.482,1.622-2.23Z" transform="translate(-289.17 -142.42)" fill="#ff8b7b"/>
      <path id="Path_20056" data-name="Path 20056" d="M318.168,160.165c.554,2.669-5.417,9.351-5.417,9.351l-5.161-3.956a34.83,34.83,0,0,1,4.287-6.093C314.319,156.817,317.539,157.234,318.168,160.165Z" transform="translate(-292.603 -139.233)" fill="#2786fc"/>
      <path id="Path_20057" data-name="Path 20057" d="M319.615,169.471c-1.439.525-2.2,4.018-3.025,6.028l1.91,1.46a43.837,43.837,0,0,0,3.906-5.151C321.719,170.291,321.259,168.874,319.615,169.471Z" transform="translate(-298.366 -146.679)" opacity="0.2"/>
      <path id="Path_20058" data-name="Path 20058" d="M288.574,379.67l-.644,3.367,2.723.852.647-3.366Z" transform="translate(-280.014 -281.365)" opacity="0.2"/>
      <path id="Path_20059" data-name="Path 20059" d="M351.3,389.77H348.44l1.147,3.406h2.856Z" transform="translate(-318.76 -287.832)" opacity="0.2"/>
      <path id="Path_20060" data-name="Path 20060" d="M337.08,159.759a64.26,64.26,0,0,0-2.6,9.2c-.457,2.18-.8,4.269-1.079,6.168-.619,4.446-.809,7.862-1.039,8.992-2.212-.36-10.542-1.64-15.081-2.352-.687-16.347,3.956-24.343,3.956-24.343a29.369,29.369,0,0,1,3.672-.14,5.8,5.8,0,0,1,.784.036,56.659,56.659,0,0,1,6.413,1c.4.083.806.176,1.2.273C335.336,159.112,337.08,159.759,337.08,159.759Z" transform="translate(-298.761 -138.96)" fill="#2786fc"/>
      <path id="Path_20061" data-name="Path 20061" d="M360.866,180.253l-3.162,3.51s-.575,6.3,1.14,9.542c.119-1.079.263-2.291.442-3.6.263-1.9.6-3.989,1.079-6.168.237-1.137.507-2.3.809-3.471Z" transform="translate(-324.633 -153.555)" opacity="0.2"/>
      <path id="Path_20062" data-name="Path 20062" d="M347.2,139.87c-.719,2-1.719,5.715-.489,7.319a6.5,6.5,0,0,1-5.251,1.194c-1.77-.317-1.665-1.568-1.162-2.194,2.388-.191,2.593-1.906,2.442-3.572Z" transform="translate(-313.343 -127.814)" fill="#ff8b7b"/>
      <path id="Path_20063" data-name="Path 20063" d="M350.3,143l-2.64,1.622a6.709,6.709,0,0,1,.018,1.169,2.884,2.884,0,0,0,2.493-1.672A3.165,3.165,0,0,0,350.3,143Z" transform="translate(-318.261 -129.819)" opacity="0.2"/>
      <path id="Path_20064" data-name="Path 20064" d="M342.738,115.842c-2.014-.935-2.928,5.827-1.514,6.8S346.5,117.583,342.738,115.842Z" transform="translate(-313.702 -112.372)" fill="#263238"/>
      <path id="Path_20065" data-name="Path 20065" d="M347.1,122.931c-.608,2.766-.824,4.417-2.457,5.629a3.765,3.765,0,0,1-5.938-2.877c-.209-2.6.82-6.686,3.726-7.373a3.863,3.863,0,0,1,4.669,4.622Z" transform="translate(-312.509 -113.939)" fill="#ff8b7b"/>
      <path id="Path_20066" data-name="Path 20066" d="M358.918,127.025c-1.255.719-1.2-7.776,1.248-6.528C364.324,122.608,361.885,125.309,358.918,127.025Z" transform="translate(-324.951 -115.329)" fill="#263238"/>
      <path id="Path_20067" data-name="Path 20067" d="M353.838,113.059c-1.14,1.043-11.657-5.492-7.165-6.546C351.705,105.322,356.025,111.045,353.838,113.059Z" transform="translate(-316.918 -106.351)" fill="#263238"/>
      <path id="Path_20068" data-name="Path 20068" d="M342.976,113.967c-1.284.86-13.47-1.554-10.5-5.089C336.02,104.648,345.638,112.183,342.976,113.967Z" transform="translate(-308.24 -107.155)" fill="#263238"/>
      <path id="Path_20069" data-name="Path 20069" d="M359.229,136.815a2.7,2.7,0,0,1-1.842.914c-.942.058-1.216-.831-.788-1.619.381-.719,1.334-1.59,2.2-1.277A1.2,1.2,0,0,1,359.229,136.815Z" transform="translate(-323.859 -124.547)" fill="#ff8b7b"/>
      <path id="Path_20070" data-name="Path 20070" d="M285.64,283.3l4.611,1.439s4.654-16.861,6.24-25.609a93.156,93.156,0,0,1,2.744-10.261c1.554-4.942,3.431-10.272,4.953-14.437,1.6-4.392,2.805-7.492,2.805-7.492l-9.916-1.547s-8.053,23.062-9.089,31.712C286.913,266.1,285.64,283.3,285.64,283.3Z" transform="translate(-278.548 -182.575)" fill="#2786fc"/>
      <path id="Path_20071" data-name="Path 20071" d="M285.64,283.3l4.611,1.439s4.654-16.861,6.24-25.609a93.156,93.156,0,0,1,2.744-10.261c1.554-4.942,3.431-10.272,4.953-14.437,1.6-4.392,2.805-7.492,2.805-7.492l-9.916-1.547s-8.053,23.062-9.089,31.712C286.913,266.1,285.64,283.3,285.64,283.3Z" transform="translate(-278.548 -182.575)" opacity="0.6"/>
      <path id="Path_20072" data-name="Path 20072" d="M323.437,260.854c1.554-4.942,3.431-10.272,4.953-14.437l-.845-2.316C324.822,246.826,323.38,255.868,323.437,260.854Z" transform="translate(-302.749 -194.556)" opacity="0.2"/>
      <path id="Path_20073" data-name="Path 20073" d="M331.173,227.73s-1,24.436-.5,32.781c.543,9.139,6.114,28.249,6.114,28.249h5.226s-2.244-17.351-3.129-26.235c-1.007-10.118,2.029-33.277,2.029-33.277Z" transform="translate(-307.295 -184.073)" fill="#2786fc"/>
      <path id="Path_20074" data-name="Path 20074" d="M331.173,227.73s-1,24.436-.5,32.781c.543,9.139,6.114,28.249,6.114,28.249h5.226s-2.244-17.351-3.129-26.235c-1.007-10.118,2.029-33.277,2.029-33.277Z" transform="translate(-307.295 -184.073)" opacity="0.6"/>
      <path id="Path_20075" data-name="Path 20075" d="M344.867,394.23h6.154v-1.838l-6.881-.122Z" transform="translate(-316.007 -289.433)" fill="#2786fc"/>
      <path id="Path_20076" data-name="Path 20076" d="M283.821,382.5l5.5,1.723.557-1.777-6.114-2.018Z" transform="translate(-277.344 -281.851)" fill="#2786fc"/>
      <path id="Path_20077" data-name="Path 20077" d="M349.032,130.866c-.036.227-.183.392-.331.36s-.241-.227-.205-.453.183-.392.331-.36S349.057,130.639,349.032,130.866Z" transform="translate(-318.791 -121.756)" fill="#263238"/>
      <path id="Path_20078" data-name="Path 20078" d="M341.856,129.756c-.036.227-.187.392-.334.36s-.241-.223-.205-.453.183-.392.335-.36S341.888,129.526,341.856,129.756Z" transform="translate(-314.194 -121.045)" fill="#263238"/>
      <path id="Path_20079" data-name="Path 20079" d="M342.578,131.24a8.273,8.273,0,0,1-1.388,1.773,1.324,1.324,0,0,0,1.054.36Z" transform="translate(-314.118 -122.288)" fill="#ff5652"/>
      <path id="Path_20080" data-name="Path 20080" d="M345.884,138.151a2.2,2.2,0,0,1-.3-.029.065.065,0,0,1-.058-.076.072.072,0,0,1,.076-.058,1.8,1.8,0,0,0,1.579-.475.068.068,0,0,1,.1,0,.065.065,0,0,1,0,.094A1.892,1.892,0,0,1,345.884,138.151Z" transform="translate(-316.895 -126.293)" fill="#263238"/>
      <path id="Path_20081" data-name="Path 20081" d="M350.674,128.075a.151.151,0,0,1-.119-.072,1.079,1.079,0,0,0-.784-.579.137.137,0,1,1,.022-.27,1.342,1.342,0,0,1,1,.719.137.137,0,0,1-.054.183A.147.147,0,0,1,350.674,128.075Z" transform="translate(-319.52 -119.67)" fill="#263238"/>
      <path id="Path_20082" data-name="Path 20082" d="M339.893,126.176a.158.158,0,0,1-.076-.025.133.133,0,0,1-.032-.187,1.36,1.36,0,0,1,1.079-.6.137.137,0,0,1,0,.273,1.032,1.032,0,0,0-.845.486A.151.151,0,0,1,339.893,126.176Z" transform="translate(-313.203 -118.523)" fill="#263238"/>
      <path id="Path_20083" data-name="Path 20083" d="M349.706,407.311a.874.874,0,0,1-.55-.144.417.417,0,0,1-.14-.36.208.208,0,0,1,.119-.191c.313-.165,1.234.4,1.338.468a.072.072,0,0,1,.032.068.076.076,0,0,1-.05.054A3.486,3.486,0,0,1,349.706,407.311Zm-.424-.575a.2.2,0,0,0-.086.018.083.083,0,0,0-.043.079.273.273,0,0,0,.09.245,1.368,1.368,0,0,0,1.014.054A2.737,2.737,0,0,0,349.282,406.735Z" transform="translate(-319.127 -298.6)" fill="#2786fc"/>
      <path id="Path_20084" data-name="Path 20084" d="M351.5,406.037a.054.054,0,0,1-.032,0c-.295-.158-.867-.784-.806-1.1a.223.223,0,0,1,.216-.176.389.389,0,0,1,.288.086c.331.273.4,1.079.4,1.129a.068.068,0,0,1-.032.061A.061.061,0,0,1,351.5,406.037Zm-.575-1.155h-.032c-.086,0-.094.054-.1.068-.036.191.327.662.622.885a1.633,1.633,0,0,0-.338-.9.238.238,0,0,0-.165-.058Z" transform="translate(-320.18 -297.427)" fill="#2786fc"/>
      <path id="Path_20085" data-name="Path 20085" d="M282.725,395.914h0c-.468-.05-1.28-.187-1.5-.547a.381.381,0,0,1-.022-.36.216.216,0,0,1,.158-.137c.392-.083,1.309.816,1.414.921a.088.088,0,0,1-.054.122Zm-1.313-.906h-.025a.079.079,0,0,0-.061.054.245.245,0,0,0,0,.234c.122.2.561.36,1.194.457C282.164,395.414,281.643,395,281.413,395.007Z" transform="translate(-275.687 -291.095)" fill="#2786fc"/>
      <path id="Path_20086" data-name="Path 20086" d="M284.287,395.2a.086.086,0,0,1-.047,0c-.281-.248-.748-1.043-.6-1.334.036-.068.115-.144.295-.1a.479.479,0,0,1,.324.223,1.906,1.906,0,0,1,.094,1.18.061.061,0,0,1-.043.05Zm-.45-1.334c-.058,0-.072.032-.075.043-.09.173.209.777.478,1.079a1.583,1.583,0,0,0-.094-.953.359.359,0,0,0-.237-.162Z" transform="translate(-277.249 -290.38)" fill="#2786fc"/>
      <path id="Path_20087" data-name="Path 20087" d="M353.57,172.607c-.054.5-.108.924-.183,1.381s-.147.9-.23,1.342c-.155.892-.36,1.773-.583,2.658a33.325,33.325,0,0,1-1.8,5.237l-.3.644-.327.64-.083.162-.04.079-.065.115a3.4,3.4,0,0,1-.46.64,2.9,2.9,0,0,1-1.633.892,3.237,3.237,0,0,1-1.439-.094,4.937,4.937,0,0,1-.95-.4,7.682,7.682,0,0,1-1.338-.946,12.212,12.212,0,0,1-1.047-1.014c-.327-.36-.629-.7-.917-1.061a20.058,20.058,0,0,1-1.579-2.255l1.654-1.363a34.5,34.5,0,0,0,3.906,2.96,5.178,5.178,0,0,0,.878.424.72.72,0,0,0,.27.058c.043,0,0-.043-.158-.029a.953.953,0,0,0-.525.255c-.054.054-.079.09-.093.1h0v-.032l.025-.068.058-.137.223-.543.205-.558a37.175,37.175,0,0,0,1.32-4.719c.183-.813.36-1.629.5-2.449s.284-1.669.4-2.431Z" transform="translate(-313.74 -148.452)" fill="#ff8b7b"/>
      <path id="Path_20088" data-name="Path 20088" d="M364.494,165.652c1.55,2.244-.87,9.92-.87,9.92l-6.834-1.629a39.388,39.388,0,0,1,1.655-6.985C359.743,163.336,362.62,162.933,364.494,165.652Z" transform="translate(-324.107 -143.191)" fill="#2786fc"/>
      <path id="Path_20089" data-name="Path 20089" d="M339.55,188.356,337.87,186l-1.82,3.158s1.878,1.694,2.877.8Z" transform="translate(-310.827 -157.353)" fill="#ff8b7b"/>
      <path id="Path_20090" data-name="Path 20090" d="M332.311,184.05l-1.381,2.683,1.845,1.169,1.816-3.158Z" transform="translate(-307.548 -156.104)" fill="#ff8b7b"/>
      <path id="Path_20091" data-name="Path 20091" d="M314.3,183.641l1.773-2.291,1.687,3.237s-1.942,1.611-2.913.68Z" transform="translate(-296.9 -154.375)" fill="#ff8b7b"/>
      <path id="Path_20092" data-name="Path 20092" d="M321.539,179.69l1.27,2.737-1.892,1.093-1.687-3.233Z" transform="translate(-300.056 -153.312)" fill="#ff8b7b"/>
    </g>
    <g id="freepik--character-1--inject-20" transform="translate(38.52 21.609)">
      <path id="Path_20093" data-name="Path 20093" d="M140.818,121.166c-.619-1.169-.237-3.154,3.09-3.183s7.086.126,6.51-2.9c2.877.478,4.856,3.054,3.467,4.748-2.226,2.708-.665,4.625-2.234,5.668-2.183,1.46-2.877,8.632-7.665,6.866C144.433,129.708,136.951,123.583,140.818,121.166Z" transform="translate(-127.977 -115.08)" fill="#263238"/>
      <path id="Path_20094" data-name="Path 20094" d="M180.217,182c.079.86.183,1.8.313,2.694s.259,1.8.439,2.7a36.359,36.359,0,0,0,1.374,5.23l.234.619.108.281c0,.018,0,0-.025,0a.446.446,0,0,0-.263-.119c-.05,0,.022.025.133,0a3.564,3.564,0,0,0,.946-.4,10,10,0,0,0,1.079-.691,26.262,26.262,0,0,0,2.126-1.694c.694-.6,1.392-1.234,2.057-1.859l1.194,1.007a27.807,27.807,0,0,1-3.848,4.438,13.517,13.517,0,0,1-1.216.982,6.05,6.05,0,0,1-1.6.827,3.018,3.018,0,0,1-1.266.129,2.294,2.294,0,0,1-.806-.252,2.37,2.37,0,0,1-.673-.532,2.654,2.654,0,0,1-.4-.608.947.947,0,0,1-.054-.108l-.04-.086-.079-.173-.309-.691a32.038,32.038,0,0,1-1.734-5.668c-.205-.957-.388-1.913-.522-2.877s-.252-1.917-.313-2.942Z" transform="translate(-151.903 -157.931)" fill="#ffc3bd"/>
      <path id="Path_20095" data-name="Path 20095" d="M177.681,171.928c1.079.281,1.7,7.485,1.7,7.485l-2.9,1.744s-1.752-5.323-1.485-7.621A2.033,2.033,0,0,1,177.681,171.928Z" transform="translate(-150.56 -151.434)" fill="#ffc3bd"/>
      <path id="Path_20096" data-name="Path 20096" d="M209.41,195.513l1.665-2.633.946,2.989s-1.367,1.439-2.6,1.079Z" transform="translate(-172.611 -164.897)" fill="#ffc3bd"/>
      <path id="Path_20097" data-name="Path 20097" d="M216.486,190.45l.655,2.55-2.154,1.313-.946-2.989Z" transform="translate(-175.576 -163.341)" fill="#ffc3bd"/>
      <path id="Path_20098" data-name="Path 20098" d="M165.28,387.343h3.086l1.309-11.333h-4.233Z" transform="translate(-144.353 -282.161)" fill="#ffc3bd"/>
      <path id="Path_20099" data-name="Path 20099" d="M111.4,376.717l2.989.773,4.589-10.4-4.136-1.169Z" transform="translate(-109.852 -275.7)" fill="#ffc3bd"/>
      <path id="Path_20100" data-name="Path 20100" d="M112.1,394.256l-3.19-1.356a.241.241,0,0,0-.309.1l-1.439,2.37a.5.5,0,0,0,.241.7c1.122.453,1.687.615,3.09,1.212.863.36,2.086.993,3.277,1.5s1.759-.647,1.306-.964a6.089,6.089,0,0,1-2.575-3.183A.806.806,0,0,0,112.1,394.256Z" transform="translate(-107.097 -292.961)" fill="#263238"/>
      <path id="Path_20101" data-name="Path 20101" d="M166.833,406.52h-3.467a.245.245,0,0,0-.245.212l-.4,2.744a.5.5,0,0,0,.5.547c1.209-.022,1.8-.09,3.316-.09.935,0,2.877.1,4.172.1s1.363-1.28.824-1.4a8.344,8.344,0,0,1-4.183-1.921A.813.813,0,0,0,166.833,406.52Z" transform="translate(-142.716 -301.697)" fill="#263238"/>
      <path id="Path_20102" data-name="Path 20102" d="M154.134,170.448s1.467.518-1.475,18.624h-12.52c.212-5.1.216-8.244-2.219-18.7a36.888,36.888,0,0,1,5.32-.719,40.01,40.01,0,0,1,5.69,0C151.375,169.88,154.134,170.448,154.134,170.448Z" transform="translate(-126.834 -149.958)" fill="#263238"/>
      <path id="Path_20103" data-name="Path 20103" d="M153.275,152c.36,1.831.719,5.186-.565,6.406a21.7,21.7,0,0,0,5.521,4.233c1.777-2.877.169-4.233.169-4.233-2.039-.486-1.989-2-1.633-3.424Z" transform="translate(-136.304 -138.721)" fill="#ffc3bd"/>
      <path id="Path_20104" data-name="Path 20104" d="M154.362,165.414a15.39,15.39,0,0,0,3.237-.065.047.047,0,0,1,.05.029c.032.083.119.309.187.464a.043.043,0,0,1-.018.058,8.3,8.3,0,0,1-3.6.144.047.047,0,0,1-.036-.061c.058-.216.119-.446.14-.532A.04.04,0,0,1,154.362,165.414Z" transform="translate(-137.247 -147.268)" fill="#2786fc"/>
      <path id="Path_20105" data-name="Path 20105" d="M158.121,155.42l2.068,1.766a5.852,5.852,0,0,0-.176,1.007,2.509,2.509,0,0,1-1.935-1.8A2.823,2.823,0,0,1,158.121,155.42Z" transform="translate(-139.726 -140.911)" opacity="0.2"/>
      <path id="Path_20106" data-name="Path 20106" d="M148.681,133.435c.719,2.978.957,4.251,2.751,5.528,2.7,1.917,6.2.385,6.384-2.744.169-2.82-1.036-7.215-4.194-7.891a4.176,4.176,0,0,0-4.942,5.107Z" transform="translate(-133.642 -123.5)" fill="#ffc3bd"/>
      <path id="Path_20107" data-name="Path 20107" d="M162.6,223.83s2.431,23.771,2.23,33.18a190.741,190.741,0,0,1-2.158,21.893H157.29s.23-11.531-.14-21.145c-.4-10.481-3.73-33.928-3.73-33.928Z" transform="translate(-136.759 -184.716)" fill="#2786fc"/>
      <path id="Path_20108" data-name="Path 20108" d="M162.394,375.322h6.068l.442-1.561-6.794-.191Z" transform="translate(-142.323 -280.598)" fill="#263238"/>
      <path id="Path_20109" data-name="Path 20109" d="M159.095,237.661c3.075,6.19.615,17.487-.471,21.688-.557-6.312-1.5-14.027-2.234-19.692C156.858,236.453,157.688,234.806,159.095,237.661Z" transform="translate(-138.661 -192.63)" opacity="0.2"/>
      <path id="Path_20110" data-name="Path 20110" d="M137.464,223.83s-2.838,24.713-4.981,32.647a126.392,126.392,0,0,1-7.747,19.818l-5.4-1.521s3.025-12.7,4.971-17.66c4.154-10.589.6-26.371,3.917-33.284Z" transform="translate(-114.937 -184.716)" fill="#2786fc"/>
      <path id="Path_20111" data-name="Path 20111" d="M118.45,364.273l5.593,1.55,1.007-1.435-6.2-2.068Z" transform="translate(-114.367 -273.394)" fill="#263238"/>
      <path id="Path_20112" data-name="Path 20112" d="M162.873,141.981c.043.245.209.421.36.392s.255-.252.212-.5-.209-.421-.36-.392S162.829,141.736,162.873,141.981Z" transform="translate(-142.805 -131.986)" fill="#263238"/>
      <path id="Path_20113" data-name="Path 20113" d="M170.573,140.617c.047.245.209.421.36.392s.255-.248.212-.493-.209-.421-.36-.392S170.529,140.373,170.573,140.617Z" transform="translate(-147.736 -131.115)" fill="#263238"/>
      <path id="Path_20114" data-name="Path 20114" d="M171,139.713l.561-.273S171.334,139.951,171,139.713Z" transform="translate(-148.016 -130.678)" fill="#263238"/>
      <path id="Path_20115" data-name="Path 20115" d="M168.41,143a6.694,6.694,0,0,0,1.151,1.41,1.079,1.079,0,0,1-.845.317Z" transform="translate(-146.357 -132.958)" fill="#ed847e"/>
      <path id="Path_20116" data-name="Path 20116" d="M163.081,149.789a2.487,2.487,0,0,0,.417-.036.072.072,0,0,0,.058-.086.068.068,0,0,0-.083-.058,1.975,1.975,0,0,1-1.719-.478.068.068,0,0,0-.1,0,.076.076,0,0,0,0,.1A2.05,2.05,0,0,0,163.081,149.789Z" transform="translate(-142.017 -136.869)" fill="#263238"/>
      <path id="Path_20117" data-name="Path 20117" d="M145.584,130.83c1.77.87,3.536.493,3.626,2.69s-2.935,5.755-3.626,3.237A15.4,15.4,0,0,1,145.584,130.83Z" transform="translate(-131.545 -125.165)" fill="#263238"/>
      <path id="Path_20118" data-name="Path 20118" d="M147.573,127.9c2.284.924,8.575,1.165,8.438-1.655s-5.575-1.572-7.132-.968S147.573,127.9,147.573,127.9Z" transform="translate(-133.005 -121.099)" fill="#263238"/>
      <path id="Path_20119" data-name="Path 20119" d="M148.364,146.34a2.23,2.23,0,0,0,1.212,1.2c.719.295,1.176-.338,1.047-1.079-.119-.658-.637-1.608-1.4-1.586a1,1,0,0,0-.856,1.46Z" transform="translate(-133.45 -134.161)" fill="#ffc3bd"/>
      <path id="Path_20120" data-name="Path 20120" d="M159.643,137.018a.133.133,0,0,0,.1-.047,1.18,1.18,0,0,1,.986-.381.146.146,0,1,0,.054-.288,1.46,1.46,0,0,0-1.252.468.151.151,0,0,0,0,.209A.155.155,0,0,0,159.643,137.018Z" transform="translate(-140.648 -128.663)" fill="#263238"/>
      <path id="Path_20121" data-name="Path 20121" d="M170.261,135.978a.137.137,0,0,0,.1-.04.144.144,0,0,0,0-.205,1.439,1.439,0,0,0-1.252-.464.144.144,0,0,0-.115.169.148.148,0,0,0,.169.119,1.162,1.162,0,0,1,.986.36A.151.151,0,0,0,170.261,135.978Z" transform="translate(-146.73 -128)" fill="#263238"/>
      <path id="Path_20122" data-name="Path 20122" d="M131.717,182.183c-.622,1.626-1.219,3.334-1.748,5.014a36.868,36.868,0,0,0-1.226,5.064c-.04.209-.058.414-.079.619l-.032.306v.129h0a1.672,1.672,0,0,0,.255.669,11.99,11.99,0,0,0,1.478,1.935c1.155,1.291,2.485,2.518,3.8,3.733l-.91,1.273a30.344,30.344,0,0,1-4.6-3.262,12.664,12.664,0,0,1-2.065-2.216,4.226,4.226,0,0,1-.777-1.841,2.673,2.673,0,0,1-.022-.36v-.572a6.311,6.311,0,0,1,.05-.745,31.538,31.538,0,0,1,1.126-5.607A48.683,48.683,0,0,1,128.793,181Z" transform="translate(-119.067 -157.29)" fill="#ffc3bd"/>
      <path id="Path_20123" data-name="Path 20123" d="M133.07,171.579c-1.23.5-2.769,7.233-2.769,7.233l2.615,2.158s2.464-5.035,2.572-7.33C135.551,171.888,134.148,171.137,133.07,171.579Z" transform="translate(-121.955 -151.178)" fill="#ffc3bd"/>
      <path id="Path_20124" data-name="Path 20124" d="M122.478,398.171a.432.432,0,0,0,.223-.291.245.245,0,0,0-.054-.245c-.266-.291-1.367-.1-1.493-.079a.083.083,0,0,0-.058.058.072.072,0,0,0,.029.076c.331.241.942.629,1.309.5A.155.155,0,0,0,122.478,398.171Zm-1.122-.507c.442-.061,1.043-.09,1.183.061a.1.1,0,0,1,0,.111.273.273,0,0,1-.169.209C122.186,398.12,121.809,397.98,121.355,397.663Z" transform="translate(-116.06 -295.905)" fill="#2786fc"/>
      <path id="Path_20125" data-name="Path 20125" d="M121.661,395.951c.32-.155.647-.392.694-.611a.255.255,0,0,0-.147-.284.392.392,0,0,0-.324-.032c-.421.144-.777.96-.791.993a.072.072,0,0,0,0,.072.065.065,0,0,0,.065.029A1.712,1.712,0,0,0,121.661,395.951Zm.227-.77.043-.018a.241.241,0,0,1,.205.018c.079.047.083.094.076.126-.043.212-.561.536-.924.637A1.877,1.877,0,0,1,121.888,395.181Z" transform="translate(-116.053 -294.321)" fill="#2786fc"/>
      <path id="Path_20126" data-name="Path 20126" d="M175.537,406.6a1.162,1.162,0,0,0,.752-.191.4.4,0,0,0,.129-.36.241.241,0,0,0-.122-.2c-.36-.205-1.608.424-1.748.5a.072.072,0,0,0-.04.075.075.075,0,0,0,.058.061A5.436,5.436,0,0,0,175.537,406.6Zm.55-.637a.292.292,0,0,1,.137.025.09.09,0,0,1,.05.079.255.255,0,0,1-.086.234,1.97,1.97,0,0,1-1.378.086,3.956,3.956,0,0,1,1.277-.417Z" transform="translate(-150.262 -301.24)" fill="#2786fc"/>
      <path id="Path_20127" data-name="Path 20127" d="M174.582,405.244h.032c.36-.165,1.079-.831,1.036-1.18,0-.083-.072-.187-.273-.209a.547.547,0,0,0-.4.126,2.072,2.072,0,0,0-.464,1.191.076.076,0,0,0,.032.065A.054.054,0,0,0,174.582,405.244Zm.719-1.252h.043c.133,0,.144.065.144.083.036.212-.457.719-.834.96a1.687,1.687,0,0,1,.4-.95.36.36,0,0,1,.27-.093Z" transform="translate(-150.263 -299.989)" fill="#2786fc"/>
      <path id="Path_20128" data-name="Path 20128" d="M142.982,221.622l-.32,1.122c-.043.086.058.173.205.173h12.9c.111,0,.205-.054.212-.126l.115-1.122c0-.076-.09-.14-.216-.14H143.187A.227.227,0,0,0,142.982,221.622Z" transform="translate(-129.864 -183.241)" fill="#2786fc"/>
      <path id="Path_20129" data-name="Path 20129" d="M142.982,221.622l-.32,1.122c-.043.086.058.173.205.173h12.9c.111,0,.205-.054.212-.126l.115-1.122c0-.076-.09-.14-.216-.14H143.187A.227.227,0,0,0,142.982,221.622Z" transform="translate(-129.864 -183.241)" fill="#fff" opacity="0.8"/>
      <path id="Path_20130" data-name="Path 20130" d="M147.5,222.861h-.342c-.065,0-.119-.032-.112-.076l.158-1.46c0-.04.065-.076.129-.076h.36c.068,0,.119.036.115.076l-.158,1.46A.174.174,0,0,1,147.5,222.861Z" transform="translate(-132.679 -183.064)" fill="#2786fc"/>
      <path id="Path_20131" data-name="Path 20131" d="M175.643,222.861H175.3c-.068,0-.119-.032-.115-.076l.158-1.46c0-.04.065-.076.133-.076h.338c.068,0,.119.036.115.076l-.158,1.46C175.772,222.829,175.711,222.861,175.643,222.861Z" transform="translate(-150.698 -183.064)" fill="#2786fc"/>
      <path id="Path_20132" data-name="Path 20132" d="M161.572,222.861h-.338c-.068,0-.122-.032-.115-.076l.158-1.46c0-.04.065-.076.133-.076h.338c.068,0,.119.036.115.076l-.158,1.46C161.7,222.829,161.64,222.861,161.572,222.861Z" transform="translate(-141.688 -183.064)" fill="#2786fc"/>
      <path id="Path_20133" data-name="Path 20133" d="M146.184,232.11l3.323.284-2.219,2.216s-1.9-.55-2.158-1.8Z" transform="translate(-131.451 -190.018)" fill="#ffc3bd"/>
      <path id="Path_20134" data-name="Path 20134" d="M206.418,187.529l-2.158,10.323a1.036,1.036,0,0,0,.8,1.226l19.652,4.122a1.047,1.047,0,0,0,1.23-.806l2.158-10.323a1.047,1.047,0,0,0-.8-1.23l-19.653-4.118a1.054,1.054,0,0,0-.748.129A1.032,1.032,0,0,0,206.418,187.529Z" transform="translate(-169.299 -160.942)" fill="#2786fc"/>
      <path id="Path_20135" data-name="Path 20135" d="M206.418,187.529l-2.158,10.323a1.036,1.036,0,0,0,.8,1.226l19.652,4.122a1.047,1.047,0,0,0,1.23-.806l2.158-10.323a1.047,1.047,0,0,0-.8-1.23l-19.653-4.118a1.054,1.054,0,0,0-.748.129A1.032,1.032,0,0,0,206.418,187.529Z" transform="translate(-169.299 -160.942)" opacity="0.5"/>
      <path id="Path_20136" data-name="Path 20136" d="M232.667,191.269l-3.1,1.579-6.158,3.126a4.223,4.223,0,0,1-5.183-1.079l-4.262-5.212-2.331-2.838a1.079,1.079,0,0,1,.752-.129l1.716.36,15.6,3.269,2.338.489a1.05,1.05,0,0,1,.637.435Z" transform="translate(-174.032 -160.937)" fill="#2786fc"/>
      <path id="Path_20137" data-name="Path 20137" d="M234.457,161.4l-.615,11.65-.13,2.489-6.158,3.126a4.223,4.223,0,0,1-5.183-1.079l-4.262-5.212.137-2.608.486-9.208a.953.953,0,0,1,.993-.9l13.837.719a.95.95,0,0,1,.9,1.018Z" transform="translate(-178.182 -143.624)" fill="#2786fc"/>
      <path id="Path_20138" data-name="Path 20138" d="M234.457,161.4l-.615,11.65-.13,2.489-6.158,3.126a4.223,4.223,0,0,1-5.183-1.079l-4.262-5.212.137-2.608.486-9.208a.953.953,0,0,1,.993-.9l13.837.719a.95.95,0,0,1,.9,1.018Z" transform="translate(-178.182 -143.624)" fill="#fff" opacity="0.9"/>
      <path id="Path_20139" data-name="Path 20139" d="M223.106,196.852,218.168,192l-.058,1.079,4.277,5.2a4.223,4.223,0,0,0,5.183,1.079l6.158-3.126.061-1.165-6.208,2.618A4.09,4.09,0,0,1,223.106,196.852Z" transform="translate(-178.182 -164.334)" opacity="0.1"/>
      <path id="Path_20140" data-name="Path 20140" d="M224,166.842l.151-2.852.575.032-.151,2.849Z" transform="translate(-181.953 -146.398)" fill="#2786fc"/>
      <path id="Path_20141" data-name="Path 20141" d="M227.14,167.012l.151-2.852.561.029,1.079,1.967.1-1.906.536.029-.151,2.852-.575-.029-1.065-1.921-.1,1.86Z" transform="translate(-183.964 -146.507)" fill="#2786fc"/>
      <path id="Path_20142" data-name="Path 20142" d="M235.6,167.446l-.87-2.906.626.032.611,2.158.809-2.072.611.032-1.173,2.8Z" transform="translate(-188.824 -146.751)" fill="#2786fc"/>
      <path id="Path_20143" data-name="Path 20143" d="M242.47,167.822l.151-2.852.576.029-.151,2.852Z" transform="translate(-193.78 -147.026)" fill="#2786fc"/>
      <path id="Path_20144" data-name="Path 20144" d="M246.1,168l.126-2.37-.845-.047.025-.482,2.266.119-.025.482-.845-.043-.126,2.37Z" transform="translate(-195.643 -147.109)" fill="#2786fc"/>
      <path id="Path_20145" data-name="Path 20145" d="M252.36,168.342l.151-2.852,2.115.111-.025.482L253.061,166l-.032.633,1.439.076-.025.482L253,167.116l-.04.777,1.593.083-.025.482Z" transform="translate(-200.113 -147.359)" fill="#2786fc"/>
      <path id="Path_20146" data-name="Path 20146" d="M154.4,234.666l-1.96,1.755-2.633-1.482L152.5,232.9Z" transform="translate(-134.447 -190.523)" fill="#ffc3bd"/>
      <path id="Path_20147" data-name="Path 20147" d="M163.29,141.073l.558-.273S163.628,141.314,163.29,141.073Z" transform="translate(-143.079 -131.549)" fill="#263238"/>
    </g>
  </g>
</svg>
