<svg xmlns="http://www.w3.org/2000/svg" xmlns:xlink="http://www.w3.org/1999/xlink" width="160" height="140" viewBox="0 0 160 140">
  <defs>
    <clipPath id="clip-path">
      <rect id="Rectangle_1097" data-name="Rectangle 1097" width="160" height="140" transform="translate(39 137)" fill="#fff" stroke="#707070" stroke-width="1"/>
    </clipPath>
  </defs>
  <g id="Mask_Group_91" data-name="Mask Group 91" transform="translate(-39 -137)" clip-path="url(#clip-path)">
    <g id="Group_5062" data-name="Group 5062" transform="translate(38.336 142.451)">
      <g id="Group_5060" data-name="Group 5060" transform="translate(0 0)">
        <path id="Subtraction_1" data-name="Subtraction 1" d="M52.036,45.123h-.005c-8.859,0-16.262-1.148-22.632-3.51.429-1.548.849-3.679.853-3.7a23.277,23.277,0,0,0-2.89,2.889,41.885,41.885,0,0,1-9.385-5.521l3.531-6.667c-.885.327-3.971,3.171-5.732,4.837a51.458,51.458,0,0,1-7.208-7.962l1.945-3.316a27.809,27.809,0,0,0-3.265,1.468A90.407,90.407,0,0,1,0,10.774,26.279,26.279,0,0,1,8.5,3.782,32.92,32.92,0,0,1,19.981.257a16.453,16.453,0,0,0,1.214,3.069.032.032,0,0,0,.016,0A11.329,11.329,0,0,0,21.775.087C22.606.029,23.448,0,24.277,0a37.078,37.078,0,0,1,10.9,1.651l-2.7,8.176c0-.007.017-.029.041-.066.785-1.231,3.468-5.393,5.034-7.291A40.548,40.548,0,0,1,48.226,8.565c-1.054,2.129-2.8,5.729-2.683,5.939a.027.027,0,0,0,.025.012,18.582,18.582,0,0,0,2.595-2.528c.683-.722,1.39-1.469,1.863-1.925a51.045,51.045,0,0,1,9.16,10.776,70.622,70.622,0,0,1,7.267,15.3c.712,2.076,1.341,7.179.852,7.951a.191.191,0,0,1-.135.1l-.819.09c-9.294-6.92-40.183-29.5-47.488-29.5a2.786,2.786,0,0,0-.461.036c2.707,1.611,4.125,2.387,5.5,3.138,2.4,1.314,4.667,2.555,13.675,8.232C48.465,33.052,60.539,41.211,65.225,44.4A131.942,131.942,0,0,1,52.036,45.123Z" transform="matrix(0.914, 0.407, -0.407, 0.914, 18.353, 73.396)" fill="#dee7ff" opacity="0.184"/>
        <path id="Subtraction_2" data-name="Subtraction 2" d="M89.252,77.111h-.009C74.6,76.278,62.253,73.688,51.5,69.2c.563-2.512,1.058-5.986,1.062-6.021-.437.084-2.692,2.489-4.506,4.491a80.424,80.424,0,0,1-16.034-9.986l5.21-10.662c-1.432.457-6.266,4.855-9.021,7.436A100.49,100.49,0,0,1,15.548,40.648l2.9-5.285a40.7,40.7,0,0,0-5.258,2.113A172.614,172.614,0,0,1,0,15.578,36.76,36.76,0,0,1,13.4,4.849,49.836,49.836,0,0,1,32.039.117c.874,2.252,1.981,4.977,2.3,5.174a.058.058,0,0,0,.028.01c.29.016.473-2.536.627-5.3,1.368-.017,2.757.014,4.127.092A65.043,65.043,0,0,1,57.3,3.845L53.612,17.073c0-.011.026-.047.061-.1C54.855,15.013,58.9,8.4,61.309,5.419a77.683,77.683,0,0,1,18.2,11.052c-1.542,3.411-4.1,9.183-3.877,9.541a.05.05,0,0,0,.042.023c.335.019,2.224-1.986,4.051-3.925,1.062-1.127,2.159-2.292,2.9-3a99.5,99.5,0,0,1,16.157,18.63,133.072,133.072,0,0,1,13.453,25.912c1.372,3.491,2.892,11.963,2.156,13.191a.272.272,0,0,1-.214.154q-.675.038-1.345.072C96.82,64.785,43.633,24.65,31.557,23.962a4.532,4.532,0,0,0-.759.015c4.627,2.911,7.044,4.324,9.381,5.691,4.091,2.392,7.955,4.651,23.38,14.86C82.212,56.872,102.94,71.46,110.986,77.159A216.4,216.4,0,0,1,89.252,77.111Z" transform="translate(60.23 0) rotate(45)" fill="#3664c1"/>
        <path id="Subtraction_3" data-name="Subtraction 3" d="M89.5,70.045h-.009c-15.043-.3-27.651-2.3-38.545-6.129.677-2.357,1.32-5.606,1.326-5.639-.453.093-2.867,2.4-4.812,4.328a77.064,77.064,0,0,1-16.12-8.768l5.774-10.094c-1.492.472-6.638,4.724-9.573,7.217a87.627,87.627,0,0,1-12.5-12.434l3.192-5.014a47.917,47.917,0,0,0-5.495,2.139A143.2,143.2,0,0,1,0,15.7,41.442,41.442,0,0,1,14.208,5.279,58.55,58.55,0,0,1,33.577.264C34.39,2.331,35.424,4.831,35.741,5a.06.06,0,0,0,.028.008c.3.006.585-2.375.85-4.949C38.028,0,39.456-.015,40.864.013A70.512,70.512,0,0,1,59.435,2.905l-4.3,12.432c0-.011.028-.044.067-.1,1.292-1.859,5.71-8.144,8.306-11a74.771,74.771,0,0,1,18.312,9.689c-1.719,3.225-4.572,8.681-4.359,9.007a.049.049,0,0,0,.042.02c.345.007,2.366-1.921,4.322-3.786,1.136-1.084,2.311-2.2,3.1-2.886a86.072,86.072,0,0,1,15.913,16.809,109.325,109.325,0,0,1,12.848,23.675c1.278,3.2,2.515,11.039,1.711,12.206a.308.308,0,0,1-.226.15q-.7.057-1.387.111C97.765,58.325,44.565,22.716,32.161,22.473a5.2,5.2,0,0,0-.782.039c4.65,2.557,7.084,3.793,9.437,4.989,4.119,2.092,8.009,4.068,23.493,13.063,18.724,10.876,39.5,23.773,47.561,28.813C103.85,69.954,96.323,70.178,89.5,70.045Z" transform="translate(148.977 51.915) rotate(79)" fill="#8f5feb" opacity="0.532"/>
      </g>
      <g id="upload_1_" data-name="upload (1)" transform="translate(52.907 72.637)">
        <path id="Path_17791" data-name="Path 17791" d="M51.27,0H3.062A3.066,3.066,0,0,0,0,3.062V61.247a3.066,3.066,0,0,0,3.062,3.062h3.1a.767.767,0,0,0,.56-.243L54.17,13.247a.767.767,0,0,0,.206-.523V3.106A3.109,3.109,0,0,0,51.27,0Z" transform="translate(0 0)" fill="#e179ef"/>
        <path id="Path_17792" data-name="Path 17792" d="M55.191,13.183v47.68a3.066,3.066,0,0,1-3.062,3.063H3.063A3.066,3.066,0,0,1,0,60.863V3.062A3.066,3.066,0,0,1,3.063,0H42.006l1.417,1.417Z" transform="translate(5.394 5.749)" fill="#fff"/>
        <path id="Path_17793" data-name="Path 17793" d="M55.191,11.766v47.68a3.066,3.066,0,0,1-3.062,3.063H3.063A3.066,3.066,0,0,1,0,59.447v-.77H48.951a3.1,3.1,0,0,0,3.1-3.1V11.766L43.423,0Z" transform="translate(5.394 7.166)" fill="#fff"/>
        <path id="Path_17794" data-name="Path 17794" d="M13.184,13.183H10.04l-9.031,0A1.009,1.009,0,0,1,0,12.173V0A.765.765,0,0,1,.543.224L12.961,12.642A.765.765,0,0,1,13.184,13.183Z" transform="translate(47.4 5.749)" fill="#dee7ff"/>
        <path id="Path_17795" data-name="Path 17795" d="M12.642,12.959H9.5L0,0,12.418,12.418A.765.765,0,0,1,12.642,12.959Z" transform="translate(47.943 5.973)" fill="#a7b9ef"/>
        <g id="Group_5061" data-name="Group 5061" transform="translate(18.115 26.899)">
          <path id="Path_17796" data-name="Path 17796" d="M1.15,2.3H28.657a1.15,1.15,0,1,0,0-2.3H1.15a1.15,1.15,0,1,0,0,2.3Z" fill="#dfe6fa"/>
          <path id="Path_17797" data-name="Path 17797" d="M28.657,0H1.15a1.15,1.15,0,0,0,0,2.3H28.657a1.15,1.15,0,1,0,0-2.3Z" transform="translate(0 6.781)" fill="#dfe6fa"/>
          <path id="Path_17798" data-name="Path 17798" d="M6.584,0H1.15a1.15,1.15,0,0,0,0,2.3H6.584a1.15,1.15,0,1,0,0-2.3Z" transform="translate(22.072 13.697)" fill="#dfe6fa"/>
          <path id="Path_17799" data-name="Path 17799" d="M17.811,0H1.15a1.15,1.15,0,0,0,0,2.3H17.811a1.15,1.15,0,1,0,0-2.3Z" transform="translate(0 13.697)" fill="#dfe6fa"/>
        </g>
      </g>
    </g>
    <g id="Ellipse_80" data-name="Ellipse 80" transform="translate(143 253)" fill="none" stroke="#5ce0ff" stroke-width="2">
      <ellipse cx="8" cy="7.5" rx="8" ry="7.5" stroke="none"/>
      <ellipse cx="8" cy="7.5" rx="7" ry="6.5" fill="none"/>
    </g>
    <ellipse id="Ellipse_81" data-name="Ellipse 81" cx="2.5" cy="2" rx="2.5" ry="2" transform="translate(171 153)" fill="#ffd566"/>
    <g id="Polygon_1" data-name="Polygon 1" transform="translate(42.612 185.543) rotate(45)" fill="none">
      <path d="M5.923,0l5.923,10.769H0Z" stroke="none"/>
      <path d="M 5.92307710647583 2.075043678283691 L 1.691272735595703 9.769235610961914 L 10.15488147735596 9.769235610961914 L 5.92307710647583 2.075043678283691 M 5.92307710647583 -4.76837158203125e-06 L 11.84615707397461 10.76923561096191 L -2.86102294921875e-06 10.76923561096191 L 5.92307710647583 -4.76837158203125e-06 Z" stroke="none" fill="#7dd327"/>
    </g>
    <g id="Path_17801" data-name="Path 17801" transform="translate(97.154 128.385)" fill="none">
      <path d="M7.538,0A7.538,7.538,0,1,1,0,7.538,7.538,7.538,0,0,1,7.538,0Z" stroke="none"/>
      <path d="M 7.538461685180664 2.000001907348633 C 4.484541893005371 2.000001907348633 2.000001907348633 4.484541893005371 2.000001907348633 7.538461685180664 C 2.000001907348633 10.59238147735596 4.484541893005371 13.0769214630127 7.538461685180664 13.0769214630127 C 10.59238147735596 13.0769214630127 13.0769214630127 10.59238147735596 13.0769214630127 7.538461685180664 C 13.0769214630127 4.484541893005371 10.59238147735596 2.000001907348633 7.538461685180664 2.000001907348633 M 7.538461685180664 1.9073486328125e-06 C 11.70184135437012 1.9073486328125e-06 15.0769214630127 3.375082015991211 15.0769214630127 7.538461685180664 C 15.0769214630127 11.70184135437012 11.70184135437012 15.0769214630127 7.538461685180664 15.0769214630127 C 3.375082015991211 15.0769214630127 1.9073486328125e-06 11.70184135437012 1.9073486328125e-06 7.538461685180664 C 1.9073486328125e-06 3.375082015991211 3.375082015991211 1.9073486328125e-06 7.538461685180664 1.9073486328125e-06 Z" stroke="none" fill="#a678fe"/>
    </g>
    <g id="idea_11_" data-name="idea (11)" transform="translate(60.42 248.586) rotate(45)">
      <g id="Group_5077" data-name="Group 5077" transform="translate(0 0)">
        <g id="Group_5076" data-name="Group 5076">
          <path id="Path_17800" data-name="Path 17800" d="M12.967,6.441A6.484,6.484,0,0,0,0,6.441v.043H0a8.016,8.016,0,0,0,2.062,5.287A5.091,5.091,0,0,1,3.5,15.056v1.982A2.264,2.264,0,0,0,5.763,19.3H7.2a2.264,2.264,0,0,0,2.262-2.262V15.056a5.091,5.091,0,0,1,1.439-3.285,8.016,8.016,0,0,0,2.062-5.287V6.441Zm-5.009,10.6a.755.755,0,0,1-.754.754H5.763a.755.755,0,0,1-.754-.754v-1.47H7.958ZM9.7,10.859a7.367,7.367,0,0,0-1.659,3.2H4.922a7.367,7.367,0,0,0-1.659-3.2A6.577,6.577,0,0,1,1.508,6.465a4.976,4.976,0,0,1,9.952,0A6.577,6.577,0,0,1,9.7,10.859Z" fill="#fd87be"/>
        </g>
      </g>
    </g>
  </g>
</svg>
